<svg id="visual" viewBox="0 0 960 540" width="960" height="540" xmlns="http://www.w3.org/2000/svg" xmlns:xlink="http://www.w3.org/1999/xlink" version="1.1"><path d="M0 334L22.8 336.7C45.7 339.3 91.3 344.7 137 352.2C182.7 359.7 228.3 369.3 274 371C319.7 372.7 365.3 366.3 411.2 351.7C457 337 503 314 548.8 311C594.7 308 640.3 325 686 334.8C731.7 344.7 777.3 347.3 823 348.3C868.7 349.3 914.3 348.7 937.2 348.3L960 348L960 541L937.2 541C914.3 541 868.7 541 823 541C777.3 541 731.7 541 686 541C640.3 541 594.7 541 548.8 541C503 541 457 541 411.2 541C365.3 541 319.7 541 274 541C228.3 541 182.7 541 137 541C91.3 541 45.7 541 22.8 541L0 541Z" fill="#fa7268"></path><path d="M0 388L22.8 392.2C45.7 396.3 91.3 404.7 137 407.3C182.7 410 228.3 407 274 406.5C319.7 406 365.3 408 411.2 402.7C457 397.3 503 384.7 548.8 380.8C594.7 377 640.3 382 686 391.2C731.7 400.3 777.3 413.7 823 415.8C868.7 418 914.3 409 937.2 404.5L960 400L960 541L937.2 541C914.3 541 868.7 541 823 541C777.3 541 731.7 541 686 541C640.3 541 594.7 541 548.8 541C503 541 457 541 411.2 541C365.3 541 319.7 541 274 541C228.3 541 182.7 541 137 541C91.3 541 45.7 541 22.8 541L0 541Z" fill="#eb5967"></path><path d="M0 426L22.8 432.5C45.7 439 91.3 452 137 452.8C182.7 453.7 228.3 442.3 274 431C319.7 419.7 365.3 408.3 411.2 410.5C457 412.7 503 428.3 548.8 441.2C594.7 454 640.3 464 686 467.2C731.7 470.3 777.3 466.7 823 456.7C868.7 446.7 914.3 430.3 937.2 422.2L960 414L960 541L937.2 541C914.3 541 868.7 541 823 541C777.3 541 731.7 541 686 541C640.3 541 594.7 541 548.8 541C503 541 457 541 411.2 541C365.3 541 319.7 541 274 541C228.3 541 182.7 541 137 541C91.3 541 45.7 541 22.8 541L0 541Z" fill="#da3f67"></path><path d="M0 462L22.8 471.2C45.7 480.3 91.3 498.7 137 508.8C182.7 519 228.3 521 274 510.5C319.7 500 365.3 477 411.2 467.5C457 458 503 462 548.8 467.8C594.7 473.7 640.3 481.3 686 490.5C731.7 499.7 777.3 510.3 823 511.7C868.7 513 914.3 505 937.2 501L960 497L960 541L937.2 541C914.3 541 868.7 541 823 541C777.3 541 731.7 541 686 541C640.3 541 594.7 541 548.8 541C503 541 457 541 411.2 541C365.3 541 319.7 541 274 541C228.3 541 182.7 541 137 541C91.3 541 45.7 541 22.8 541L0 541Z" fill="#c62368"></path></svg>