<svg id="visual" viewBox="0 0 960 540" width="960" height="540" xmlns="http://www.w3.org/2000/svg" xmlns:xlink="http://www.w3.org/1999/xlink" version="1.1"><path d="M0 179L69 179L69 50L137 50L137 293L206 293L206 44L274 44L274 206L343 206L343 71L411 71L411 44L480 44L480 152L549 152L549 39L617 39L617 174L686 174L686 266L754 266L754 158L823 158L823 50L891 50L891 87L960 87L960 66L960 0L960 0L891 0L891 0L823 0L823 0L754 0L754 0L686 0L686 0L617 0L617 0L549 0L549 0L480 0L480 0L411 0L411 0L343 0L343 0L274 0L274 0L206 0L206 0L137 0L137 0L69 0L69 0L0 0Z" fill="#b0235f"></path><path d="M0 368L69 368L69 260L137 260L137 379L206 379L206 228L274 228L274 303L343 303L343 336L411 336L411 271L480 271L480 276L549 276L549 276L617 276L617 293L686 293L686 320L754 320L754 314L823 314L823 298L891 298L891 330L960 330L960 249L960 64L960 85L891 85L891 48L823 48L823 156L754 156L754 264L686 264L686 172L617 172L617 37L549 37L549 150L480 150L480 42L411 42L411 69L343 69L343 204L274 204L274 42L206 42L206 291L137 291L137 48L69 48L69 177L0 177Z" fill="#be3061"></path><path d="M0 417L69 417L69 357L137 357L137 411L206 411L206 384L274 384L274 352L343 352L343 357L411 357L411 325L480 325L480 379L549 379L549 330L617 330L617 433L686 433L686 368L754 368L754 363L823 363L823 363L891 363L891 395L960 395L960 287L960 247L960 328L891 328L891 296L823 296L823 312L754 312L754 318L686 318L686 291L617 291L617 274L549 274L549 274L480 274L480 269L411 269L411 334L343 334L343 301L274 301L274 226L206 226L206 377L137 377L137 258L69 258L69 366L0 366Z" fill="#cb3d62"></path><path d="M0 476L69 476L69 401L137 401L137 428L206 428L206 395L274 395L274 411L343 411L343 401L411 401L411 336L480 336L480 411L549 411L549 401L617 401L617 465L686 465L686 422L754 422L754 417L823 417L823 379L891 379L891 417L960 417L960 368L960 285L960 393L891 393L891 361L823 361L823 361L754 361L754 366L686 366L686 431L617 431L617 328L549 328L549 377L480 377L480 323L411 323L411 355L343 355L343 350L274 350L274 382L206 382L206 409L137 409L137 355L69 355L69 415L0 415Z" fill="#d84a64"></path><path d="M0 498L69 498L69 460L137 460L137 465L206 465L206 465L274 465L274 465L343 465L343 428L411 428L411 363L480 363L480 449L549 449L549 428L617 428L617 487L686 487L686 433L754 433L754 455L823 455L823 422L891 422L891 444L960 444L960 390L960 366L960 415L891 415L891 377L823 377L823 415L754 415L754 420L686 420L686 463L617 463L617 399L549 399L549 409L480 409L480 334L411 334L411 399L343 399L343 409L274 409L274 393L206 393L206 426L137 426L137 399L69 399L69 474L0 474Z" fill="#e45765"></path><path d="M0 525L69 525L69 503L137 503L137 492L206 492L206 487L274 487L274 503L343 503L343 471L411 471L411 476L480 476L480 525L549 525L549 455L617 455L617 519L686 519L686 482L754 482L754 476L823 476L823 514L891 514L891 498L960 498L960 482L960 388L960 442L891 442L891 420L823 420L823 453L754 453L754 431L686 431L686 485L617 485L617 426L549 426L549 447L480 447L480 361L411 361L411 426L343 426L343 463L274 463L274 463L206 463L206 463L137 463L137 458L69 458L69 496L0 496Z" fill="#ef6467"></path><path d="M0 541L69 541L69 541L137 541L137 541L206 541L206 541L274 541L274 541L343 541L343 541L411 541L411 541L480 541L480 541L549 541L549 541L617 541L617 541L686 541L686 541L754 541L754 541L823 541L823 541L891 541L891 541L960 541L960 541L960 480L960 496L891 496L891 512L823 512L823 474L754 474L754 480L686 480L686 517L617 517L617 453L549 453L549 523L480 523L480 474L411 474L411 469L343 469L343 501L274 501L274 485L206 485L206 490L137 490L137 501L69 501L69 523L0 523Z" fill="#fa7268"></path></svg>