<svg id="visual" viewBox="0 0 960 540" width="960" height="540" xmlns="http://www.w3.org/2000/svg" xmlns:xlink="http://www.w3.org/1999/xlink" version="1.1"><path d="M0 164L22.8 156.5C45.7 149 91.3 134 137 122.3C182.7 110.7 228.3 102.3 274 114.2C319.7 126 365.3 158 411.2 171.8C457 185.7 503 181.3 548.8 165.5C594.7 149.7 640.3 122.3 686 106.8C731.7 91.3 777.3 87.7 823 101.7C868.7 115.7 914.3 147.3 937.2 163.2L960 179L960 0L937.2 0C914.3 0 868.7 0 823 0C777.3 0 731.7 0 686 0C640.3 0 594.7 0 548.8 0C503 0 457 0 411.2 0C365.3 0 319.7 0 274 0C228.3 0 182.7 0 137 0C91.3 0 45.7 0 22.8 0L0 0Z" fill="#000000" stroke-linecap="round" stroke-linejoin="miter"></path></svg>