<svg id="visual" viewBox="0 0 900 600" width="900" height="600" xmlns="http://www.w3.org/2000/svg" xmlns:xlink="http://www.w3.org/1999/xlink" version="1.1"><path d="M0 108L15 116.5C30 125 60 142 90 143.3C120 144.7 150 130.3 180 132.2C210 134 240 152 270 157.2C300 162.3 330 154.7 360 136.2C390 117.7 420 88.3 450 85.3C480 82.3 510 105.7 540 124.5C570 143.3 600 157.7 630 150C660 142.3 690 112.7 720 95.8C750 79 780 75 810 81.2C840 87.3 870 103.7 885 111.8L900 120L900 0L885 0C870 0 840 0 810 0C780 0 750 0 720 0C690 0 660 0 630 0C600 0 570 0 540 0C510 0 480 0 450 0C420 0 390 0 360 0C330 0 300 0 270 0C240 0 210 0 180 0C150 0 120 0 90 0C60 0 30 0 15 0L0 0Z" fill="#000000" stroke-linecap="round" stroke-linejoin="miter"></path></svg>